<?xml version="1.0" encoding="UTF-8" standalone="no"?>
<svg
   xmlns:dc="http://purl.org/dc/elements/1.1/"
   xmlns:cc="http://creativecommons.org/ns#"
   xmlns:rdf="http://www.w3.org/1999/02/22-rdf-syntax-ns#"
   xmlns:svg="http://www.w3.org/2000/svg"
   xmlns="http://www.w3.org/2000/svg"
   xmlns:sodipodi="http://sodipodi.sourceforge.net/DTD/sodipodi-0.dtd"
   xmlns:inkscape="http://www.inkscape.org/namespaces/inkscape"
   version="1.1"
   id="mapplic-czechrepublic"
   x="0px"
   y="0px"
   width="842px"
   height="567px"
   viewBox="0 0 842 567"
   enable-background="new 0 0 842 567"
   xml:space="preserve"
   sodipodi:docname="czechrepublic.svg"
   inkscape:version="0.92.2 (5c3e80d, 2017-08-06)"><metadata
     id="metadata22"><rdf:RDF><cc:Work
         rdf:about=""><dc:format>image/svg+xml</dc:format><dc:type
           rdf:resource="http://purl.org/dc/dcmitype/StillImage" /><dc:title></dc:title></cc:Work></rdf:RDF></metadata><defs
     id="defs20" /><sodipodi:namedview
     pagecolor="#ffffff"
     bordercolor="#666666"
     borderopacity="1"
     objecttolerance="10"
     gridtolerance="10"
     guidetolerance="10"
     inkscape:pageopacity="0"
     inkscape:pageshadow="2"
     inkscape:window-width="1278"
     inkscape:window-height="1008"
     id="namedview18"
     showgrid="false"
     inkscape:zoom="0.8324515"
     inkscape:cx="458.98487"
     inkscape:cy="339.92969"
     inkscape:window-x="1273"
     inkscape:window-y="0"
     inkscape:window-maximized="0"
     inkscape:current-layer="layer2" /><g
     id="landmarks-regions"><path
       id="cz-us"
       fill="#DDDDDD"
       stroke="#FFFFFF"
       d="M324.982,103.874l-0.065,0.457l-0.3,1.003l-0.286,0.537l-0.398,0.468   l-0.53,0.333l-3.275,0.285l-0.446,0.342l-0.336,0.585l-0.211,0.886l-0.201,2.659l-0.358,1.289l-0.547,1.108l-0.701,0.866   l-0.813,0.562l-0.893,0.202l-0.926-0.221l-5.669-5.885l-0.756-0.35l-0.607,0.179l-0.413,0.838l-1.221,7.086l-1.373,1.287   l-0.475,0.662l-0.384,0.766l-0.223,0.858l0.058,1.814l-0.149,0.729l-0.297,0.607l-2.45,2.288l-0.456,0.618l-1.987,5.168   l-1.528,0.964l-0.499,0.542l-0.379,0.663l-0.166,0.783l0.129,0.903l6.106,19.249l7.738,6.406l0.84,3.916l-0.742,0.521l-0.403,0.607   l-0.319,0.662l-0.153,0.587l-0.115,0.78v1.044l-0.137,1.389l-0.37,1.323l-0.17,0.427l-0.166,0.339l-0.691,0.511l-0.883,0.47   l-3.162,2.648l-0.943,0.554l-0.638,0.273l-0.573-0.052l-0.574-0.154l-1.435-0.657l-0.876-0.159l-0.403,0.335l-0.103,0.678   l0.153,0.687l0.504,1.507l0.168,0.651l0.05,0.668l-0.118,1.091l-0.017,0.582l0.134,0.55l0.403,1.21l0.153,0.57v0.634l-0.101,0.414   l-0.523,0.783l-0.185,0.396l-0.235,0.712l-0.372,0.855l-0.859,1.292l-0.857,0.471l-0.842,0.18l-1.908-0.131l-3.064,0.254   l-0.842,0.247l-0.909,0.592l-2.344,1.964l-0.79,0.387l-0.557,0.133l-3.542-1.327l-8.556,1.467l-2.188-0.273l-2.548-0.927   l-2.658-0.523l-4.535,0.149l-1.313,0.309l-0.842,0.396l-0.454,0.729l-0.252,0.738l-0.12,0.939l-0.021,0.721l0.142,1.082   l-0.034,0.569l-0.218,0.633l-0.648,1.001l-0.84,0.344l-0.909,0.087l-1.464-0.097l-1.029,0.413l-6.433,4.047l-0.658,0.746   l-0.679,0.931l-0.624,0.646l-1.211,0.96l-0.756,0.124l-0.826-0.308L240.8,207.2l-0.876-0.379l-0.926,0.081l-10.347,5.402   l-1.909,0.509h-0.539l-0.453-0.149l-0.673-0.333l-0.675-0.175l-1.195-0.017l-0.926,0.306l-0.79,0.483l-0.37,0.317l-1.017,1.068   l-4.645,3.037l-6.354,2.642l-1.267,0.729l-0.606,0.683l-1.448,2.307l-1.042,2.509l-1.045,1.312l-1.262,0.858l-2.784,2.8   l-1.076,0.553l-1.684,0.463l-1.37,0.708l-1.126,1.618l-2.307,1.653l-1.503-0.013l-4.881-1.229l-0.995-0.502l-0.689-0.74   l-1.184-1.644l-1.009-1.129l-1.264-1.155l-2.276-1.635l-0.809-0.832l-0.336-0.534l0.184-0.683l0.203-0.372l1.572-2.053l0.437-0.709   l0.37-0.762l-0.236-1.383l-0.723-1.857l-2.295-3.549l-0.825-1.719l-0.336-1.368l0.253-0.794l0.203-0.837l0.1-0.895l-0.133-1.753   l-0.389-2.168l-0.184-2.002l-0.033-1.133l0.2-3.683l-0.033-1.444l-0.184-1.468l-0.539-2.25l-0.556-1.099l-0.689-0.803l-1.672-0.919   l-3.063-0.791l-3.304-0.168l-2.71-0.563l-1.381-1.032l-0.792-1.057l-0.711-1.455l-0.556-0.718l-0.656-0.505l-7.093-0.827   l-1.852-1.057l-3.643-3.046l2.368-2.341l1.538-1.823l0.707-3.11l0.707-6.956l0.897-0.626l0.909-0.221l0.898,0.194l0.841,0.635   l0.954,0.282l1.01,0.088l1.021-0.08l0.988-0.273h0.011l0.022-0.018l3.063-1.059l5.723,0.335l2.671-2.003l1.56-2.833l3.613-9.688   l2.11,0.194l1.762,1.237l1.807,0.804l2.278-1.166l1.156-3.464l0.606-1.087l4.074-2.9l0.651-0.708l0.067-0.619l0.303-0.212   l1.324,0.487l0.583,0.663l1.526,2.573l0.718,0.902l2.424,1.193l2.02-0.504l1.84-1.68l1.885-2.361l1.077-0.61l0.651-0.805   l0.101-1.035l-0.628-1.372l1.807-1.372l1.448-1.876l0.426-2.311l-1.257-2.63l4.444-2.693l4.927-0.931l9.752,0.053l2.093-0.417   l4.13-1.533l2.345-0.239l4.982,0.559l1.954-0.399l3.141-1.968l0.662-0.018l0.629-0.222l0.741-1.064l0.055-0.905l-0.256-1.206   l-0.137-1.455l0.46-1.668l0.998-1.233l0.921-0.035l1.056,0.319l1.368-0.204l1.111-0.834l1.661-2.13l1.168-0.834l2.121-0.462   l3.971,0.515l2.087-0.142l16.923-7.79l1.325-1.244l1.986-3.005l1.178-1.165l3.906-0.818l8.516,0.676l3.188-2.713l0.65-4.289   l-2.896-1.682l-4.004-1.184l-2.774-2.752l0.101-1.809l0.921-0.641l0.168-0.348l-2.167-0.882l-3.668-0.481l-1.267-0.838l1.211-1.756   l1.526-4.967l2.603-2.659l3.456-0.549l4.041,1.325l0.818,0.75l0.574,0.959l0.708,0.941l1.178,0.643l1.2,0.026l3.042-1.351   l3.938,0.223l1.236-0.643l0.943-2.386l0.626,1.463l0.238,1.039l0.37,1.035l1.022,1.414l1.346,0.945l2.93,0.74l1.334,1.052   l1.313,1.596l0.83,1.363l0.338,1.684l-0.202,2.592l-0.842,2.075l-1.303,2.475l-0.595,2.101l1.246,0.988l6.005-2.501l1.313,0.027   l0.583,1.949l-0.628,2.287l-1.84,4.332L324.982,103.874" /><path
       id="cz-pl"
       fill="#DDDDDD"
       stroke="#FFFFFF"
       d="M194.4,234.533l1.295,3.385l0.05,0.734l-0.05,0.909l-0.32,0.831l-0.437,0.891   l-0.456,1.214l0.017,0.725l0.403,0.525l0.539,0.226l0.606,0.079l0.544-0.026l1.179-0.295l2.205-1.233l0.556-0.175l0.623,0.02   l1.431,0.559l1.79,0.417l1.887,0.917l5.272,5.101l0.959,0.602l1.942,0.245l1.515-0.144l1.465-0.346l0.875-0.074l1.076,0.079   l2.044,0.576l1.176,0.545l0.945,0.628l2.844,3.141l0.739,0.636l0.613,0.343l3.619,1.106l0.689,0.444l0.454,0.619l0.103,0.66   l0.236,0.763l5.694,2.91l0.964,1.025l0.456,0.804l-0.17,0.595l-0.067,0.729l0.034,0.715l0.186,0.854l1.059,3.606l0.12,0.818   l-0.053,0.449l-0.118,0.3l-0.269,0.173l-0.454,0.214l-0.589,0.18l-1.05,0.104l-0.32,0.084l-0.236,0.247l-0.236,0.562l-0.033,0.727   l0.066,1.454l-0.033,0.756l-0.1,0.653l-0.117,0.46l-1.364,3.436v0.47l0.066,0.59l0.253,1l0.117,0.718l-0.067,0.844l-1.076,3.723   l-0.186,0.853l-0.033,0.996l0.15,0.437l0.27,0.241l1.062,0.429l0.773,0.449l0.27,0.574l0.017,0.512l-0.353,0.735l-2.693,3.026   l-0.84,0.781l-0.833,0.417l-3.18,0.792l-1.365,0.573l-1.229,0.775l-1.283,1.245l-0.589,0.795l-0.286,0.794l0.437,0.692l1.651,1.49   l0.141,0.603l-0.174,0.491l-0.875,0.512l-0.656,0.555l0.017,0.226l1.403,0.859l0.27,0.438l0.067,0.411l-0.191,0.441l-0.64,0.555   l-0.286,0.433l-0.103,0.598l0.253,1.291l0.439,0.606l0.544,0.375l0.487,0.162l0.539,0.27l0.725,0.516l0.959,1.131l0.42,0.83   l0.203,0.934l-0.1,4.146l0.15,1.724l0.27,1.003l0.37,0.768l1.045,1.281l0.74,1.133l0.241,1.169v0.978l-0.319,1.624l-0.47,1.461   l-0.208,0.466l-0.136,0.583l0.017,1.522l1.539,3.443l1.379,5.408l0.153,1.423l-0.103,0.833l-0.756,3.134l-0.186,2.574l0.236,2.054   l0.589,2.939l0.133,1.42l-0.133,1.121l-0.456,1.025l-2.092,3.507l-0.976,2.146l-0.606,2.095l-0.439,1.171l-0.37,0.723l-0.52,0.445   l-1.887,1.136l-0.437,0.402l-0.522,0.657l-0.133,0.65l0.033,0.542l0.606,1.591v0.919l-0.136,0.648l-0.336,0.618l-0.695,0.909   l-0.389,0.65l-0.067,0.643l0.153,0.586l0.437,0.609l1.52,1.562l0.472,1.169l-0.083,0.624l-0.589,0.55l-0.882,0.321l-1.126,0.733   l-0.976,0.958l-2.863,5.427l-1.05,1.437l-0.42,0.31l-0.473,0.093l-1.312-0.266l-1.009,0.481l-1.145,1.299l-1.398,3.617   l-0.392,2.404l0.055,1.79l0.179,0.957l0.103,0.823l-0.033,1.425l-0.315,0.981l-0.511,0.881l-2.34,2.316l-2.524,3.94l-2.362,5.036   l0.134,1.548l0.005,0.045h-0.001l-0.7-0.148l-1.504,0.693l-1.032,1.819l-1.122,2.879l-2.536-1.222l-3.434-2.47l-3.12-2.932   l-1.56-2.539L192,412.977l-1.212-2.884l-4.612-4.707l-3.299-4.43l-1.324-1.149l-2.177-0.84l-6.565-0.307l-3.075-1.803l-1.728-2.785   l-1.425-3.27l-10.167-13.849l-1.347-0.766l-0.022-0.018v-0.01l-3.467-4.135l-0.494-1.548l-0.146-1.609l-0.606-1.358l-1.885-0.782   l-3.052-3.245l-1.571-1.274l-1.84-0.988l-4.152-1.146l-1.493,0.475l0.482,2.144l-2.031,0.275l-6.397-0.938l-2.154-0.784   l-1.717-1.78l-3.558-7.987l-2.188-2.268l-5.005-2.364l-2.121-1.768l-1.235-2.417l-0.539-2.711l-0.314-5.482l-0.146-2.816   l-0.808-0.657l-1.145,0.166l-1.223-0.372l-1.178-1.236l-0.853-1.252l-0.685-1.497l-0.696-2.006l-0.438-1.963l-0.505-3.712   l-0.763-1.818l-1.145-1.265l-2.592-1.428l-1.111-1.353l0.079-0.407l0.516-1.316l-0.864-0.423l-0.28-0.226l0.92-2.055l-0.079-2.227   l-0.897-1.777l-1.504-0.79l-3.613-1.734l-1.661-1.135l-1.56-1.416l-2.245-3.233l-1.122-2.154l-0.539-1.771l1.279-2.525l4.489-1.909   l1.728-1.757l0.348-2.764l0.056-3.529l0.662-2.373l2.177,0.669l0.796-2.601l2.503-4.641l0.875-2.577l0.337-3.275l5.139,0.977   l1.026-0.182l0.806-0.461l2.944-2.973l0.578-0.262l0.601-0.029l3.202,1.192l1.899,0.204l1.551-0.262l0.515-0.336l3.278-3.853   l0.721-0.389l8.431,0.17l2.369,2.498l0.408,0.237l0.403,0.086l0.398-0.093l2.703-2.023l0.861-0.237l0.363,0.041l2.91,1.476   l1.754,0.415l0.689-0.201l0.468-0.593l1.462-7.133l0.429-0.857l0.578-0.511l10.056-5.488l2.338-2.574l1.136-0.708l0.501-0.108   l7.491,1.468l3.881,4.394l1.401,0.549l1.465-0.036l0.594-0.269l0.411-0.441l0.162-0.626l-1.276-5.012l-0.091-0.984l0.05-0.854   l0.217-0.674l0.42-0.441l6.301-1.392l0.48-0.457l-0.077-0.625l-0.759-1.77l-0.262-1.037l-0.105-1.054l0.11-1.01l0.386-0.902   l0.723-0.732l1.117-0.499l1.009,1.129l1.184,1.644l0.689,0.74l0.995,0.502l4.881,1.229l1.503,0.013L194.4,234.533" /><path
       id="cz-jm"
       fill="#DDDDDD"
       stroke="#FFFFFF"
       d="M561.776,315.231l-0.438,2.036l-0.511,1.263l-0.586,0.644l-0.662,0.18   l-3.447-0.826l-0.772,0.247l-0.303,0.667l0.092,0.974l0.409,1.174l1.475,2.5l4.634,4.619l0.259,0.537l0.005,0.456l-0.291,0.354   l-1.221,0.604l-0.235,0.688l0.059,0.94l0.28,1.123l2.696,6.902l0.137,0.948l-0.01,0.901l-0.165,0.858l-0.334,0.815l-0.514,0.771   l-0.705,0.726l-0.475,0.746l0.084,0.809l0.529,0.856l5.904,4.593l0.929-0.043l0.966-0.43l0.957-0.724l1.752-1.942l1.265-1.986   l0.321-0.938l0.084-1.025l-0.11-1.073l-0.257-1.07l-0.769-1.967l-1.979-3.317l-0.163-0.581l-0.072-0.713l0.196-1.996l0.403-1.003   l0.697-0.585l0.922-0.23l1.067,0.055l4.237,1.765l0.771,0.688l1.329,2.112l0.97,2.525l0.729,3.895l0.367,0.853l0.545,0.896   l5.044,4.921l0.362,0.607l0.262,0.72l0.144,0.843l-0.163,3.258l0.331,0.926l0.616,0.752l1.811,1.062l4.06,1.267l2.21,2.137   l2.037,3.037l1.293,3.012l0.189,1.211l-0.044,0.95l-0.119,0.781l-0.084,0.297l-0.105,0.365l-1.785,3.222l-0.257,1.076l0.099,1.395   l0.96,3.259l1.475,3.081l1.389,1.943l2.85,1.693l0.458,0.474l0.379,0.662l0.284,0.905l0.065,0.969l-0.219,0.806l-0.448,0.665   l-1.354,0.969l-2.942,1.095l-0.527,0.512l-2.813,4.03l-1.655,1.495l-0.197,0.779l0.238,0.78l0.578,0.735l0.82,0.647l1.985,0.859   l1.888,0.025l5.293-1.821l0.814,0.054l0.614,0.42l0.303,0.828l0.071,1.12l-0.288,5.145l0.217,0.878l0.438,0.636l0.593,0.528   l4.468,2.095l6.718,1.398l0.517,0.353l0.413,0.645l0.56,1.736l0.343,2.386l3.847,1.637l1.943,1.569l1.173,1.799l0.7,0.418   l0.803,0.089l0.85-0.163l3.45-1.874l3.2,0.433l2.495,1.003l0.41,0.409l0.713,1.192l0.537,1.541l0.341,1.713l0.329,0.731   l0.695,0.502l5.884,1.751l1.031,0.731l0.845,1.046l0.71,1.313l1.039,2.923l0.807,3.729l-12.045,4.753l-3.974-0.621l-3.321-3.521   l-1.583-0.768l-2.579,0.759l-1.991,1.31l-2.116,1.396l-1.886,0.356l-12.389-6.301l-5.219-1.366l-4.859,1.042l-5.835,4.265   l-0.987,1.533l-0.64,3.108l-1.563,1.987l-3.735,3.243l-2.671,4.562l-5.487,15.867l-1.244,2.289l-1.719,2.103l-0.269,3.119   l-3.748-4.372l-1.505-10.884l-2.569-3.621l-1.785-0.137l-4.173,1.488l-2.087,0.257l-1.999-0.749l-3.928-2.61l-1.66-0.57   l-4.13,0.171l-1.729-0.309l-1.425-1.003l-0.787-1.948l-0.402-2.365l-0.854-1.984l-2.075-0.842l-2.009-0.24l-6.484-1.891   l-1.854-1.192l-0.998-0.341l-0.998,0.137l-1.965,0.835l-1.123,0.051l-3.131-0.461l-1.884,1.264l-5.513,9.465l-1.188,1.113   l-1.706,0.504l-0.606-0.196l-1.438-1.174l-2.256,0.341l-0.122,0.109l-15.185-2.255l-10.031,0.604l-5.756-2.503l-10.921-7.972   l-0.157-0.817v-1.14l-0.571-0.709l-1.84,0.479L466,444.519l-0.809-0.741l-1.225-0.051l-1.366,0.324l1.109-1.476l-0.909,0.06   l-0.809-0.367l-1.188-0.868l-2.077-0.152l-0.738-0.317l-0.54-0.844l-0.438-2.03l-0.629-0.478l-3.322,0.01l-0.94,0.229l-3.861,2.048   l-1.83,0.579h-2.503l-2.436-0.579l-8.427-4.771l-6.465-2.52l0.009-0.041l0.269-1.563l0.453-0.991l0.403-1.323l1.654-4.186   l0.523-1.729v-0.68l0.305-0.753l0.497-0.459l0.644-0.168l0.738,0.125l0.792,0.413l0.794,0.695l2.05,3.251l0.636,0.359l0.614-0.135   l0.568-0.465l0.878-1.298l0.344-0.721l0.751-0.914l1.14-0.902l0.688-0.275l0.735-0.043l0.759,0.275l3.262,2.841l0.631,0.212   l0.674-0.092l7.854-7.147l3.056-1.396l3.762,0.362l0.703-0.362l0.535-0.715l0.55-2.323l0.422-0.784l0.53-0.466l0.573-0.213   l1.021,0.019l0.451,0.136l2.805-3.486l0.805-0.444l0.718,0.067l0.562,0.758l0.476,0.996l0.522,0.701l0.568,0.453l1.301,0.367   l3.254-0.138l0.672-0.272l1.935-1.457l0.483-0.127l7.488,1.234l1.126-0.396l0.904-0.739l2.246-3.354l0.442-0.402l7.639-2.464   l2.37-2.91l0.754-1.627l0.175-0.799l0.005-0.773l-0.194-0.725l-0.873-2.134l-0.146-0.746l0.01-0.774l0.209-0.81l0.455-0.855   l1.52-1.838l0.484-0.907l0.228-0.866l-0.005-0.799l-0.213-0.712l-0.399-0.603l-0.566-0.472l-1.352-0.688l-0.448-0.611l-0.27-0.802   l-0.109-0.943l0.158-2.092l0.504-2.037l0.391-0.771l0.525-0.502l2.289-0.916l0.334-0.36l0.125-0.568l-0.07-0.622l-0.177-0.508   l-0.767-1.404l-0.188-0.623l-0.084-0.8l0.063-1.034l0.242-1.14l0.4-1.066l1.141-1.854l1.37-1.387l9.47-5.8l0.434-0.813l0.116-1.003   l-0.135-1.149l-2.044-6.415l-0.219-1.199l-0.242-7.615l-0.631-2.236l0.043-0.776l0.3-0.558l0.495-0.375l3.251-0.583l0.432-0.521   l0.311-0.773l0.183-0.939l0.045-1.031l-0.089-1.037l-0.237-0.964l-0.381-0.813l-2.986-2.978l-0.278-0.728l0.019-0.876l1.353-3.338   l0.506-1.937l0.242-1.856l2.615,0.234l12.87-1.255l0.959-0.796l0.354-0.686l0.201-1.096l0.135-1.406l0.557-0.731l0.94-0.396   l5.799-0.021l0.823,0.214l1.351,0.656l0.993,0.117l3.659-0.264l2.712,0.252l2.541,0.89l5.441,2.763L561.776,315.231" /><path
       id="cz-zl"
       fill="#DDDDDD"
       stroke="#FFFFFF"
       d="M735.266,353.732l-0.198,5.896l-2.561,2.011l-4.018,3.155l-14.609,5.71   l-3.198,3.038l-2.614,4.261l-2.03,5.07l-1.382,5.449l-0.393,4.453l0.018,0.998l0.14,7.411l-0.718,3.644l-2.255,3.826l-3.198,2.986   l-3.604,1.661l-5.822-0.454l-2.625,0.41l-2.279,1.471l-1.435,2.893l-0.676,2.455l-0.842,5.117l-0.886,2.266l-1.998,1.955   l-2.076,0.118l-2.289-0.393l-2.67,0.461l-1.752,1.459l-3.748,6.47l-1.919,1.596l-8.814,3.48l-0.808-3.729l-1.039-2.923l-0.71-1.313   l-0.845-1.046l-1.031-0.731l-5.884-1.751l-0.695-0.502l-0.329-0.731l-0.341-1.713l-0.537-1.541l-0.713-1.192l-0.41-0.409   l-2.494-1.004l-3.201-0.432l-3.45,1.874l-0.85,0.163l-0.803-0.089l-0.7-0.418l-1.173-1.799l-1.943-1.569l-3.847-1.637l-0.343-2.386   l-0.56-1.736l-0.413-0.645l-0.517-0.353l-6.718-1.398l-4.468-2.095l-0.593-0.528l-0.438-0.636l-0.217-0.878l0.288-5.146   l-0.071-1.119l-0.303-0.828l-0.614-0.42l-0.814-0.054l-5.293,1.821l-1.888-0.026l-1.985-0.858l-0.82-0.647l-0.578-0.735   l-0.238-0.78l0.197-0.779l1.655-1.495l2.813-4.03l0.527-0.512l2.942-1.095l1.354-0.969l0.448-0.665l0.219-0.807l-0.064-0.968   l-0.285-0.905l-0.379-0.662l-0.458-0.474l-2.85-1.693l-1.389-1.943l-1.474-3.081l-0.961-3.259l-0.099-1.395l0.257-1.076   l1.785-3.222l0.105-0.366l0.107,0.27l0.482,0.861l0.348,0.404l0.42,0.283l0.482,0.086l0.545-0.188l0.453-0.53l0.275-0.815   l0.478-3.06l0.296-0.861l0.489-0.595l0.756-0.224l7.073-0.176l0.438,0.086l0.354-0.022l0.486-0.242l0.354-0.396l0.521-0.818   l0.591-0.748l3.709-3.585l0.37-0.47l0.973-2.006l-0.938-1.177l-0.876-2.849l0.171-2.853l0.446-2.682l2.039,0.268l0.677,0.078   l1.673,0.63l2.679,2.299l2.293,1.252l0.96,0.188l4.661,2.107l1.116,0.221l0.644-0.226l0.672-0.593l0.54-0.925l0.504-1.11   l0.521-0.932l0.453-0.567l0.558-0.461l1.414-0.808l1.874-0.776l0.842-0.211l7.732,0.155l0.774-0.117l0.66-0.271l0.473-0.471   l0.354-0.51l0.221-0.688v-0.743l-0.271-1.067L652.931,344l-0.155-0.672l0.202-0.489l0.404-0.346l1.317-0.523l1.229-0.158   l1.65,0.069l9.538,1.938l2.922-1.306l-0.305-1.803l-0.038-1.634l0.11-0.82l0.231-0.756l0.341-0.573l0.398-0.367l1.344-0.749   l0.438-0.425l0.397-0.662l0.698-2.016l0.448-0.753l0.517-0.485l0.563-0.236l0.577-0.005l0.57,0.219l0.548,0.425l1.021,1.183   l0.624,0.324l1.341,0.129l1.579-0.393l1.627-4.393l4.786,0.079l0.435,0.261l0.379,0.454l0.304,0.706l0.45,2.07l0.428,0.83   l0.603,0.612l0.761,0.397l0.914,0.191l16.931-1.68l1.021,0.42l3.271,2.327l0.733,0.273l8.249-0.132l1.864,0.712l0.545,0.604   l2.263,4.855l0.729,0.826l1.864,1.185l0.675,0.777l0.473,0.941l0.323,1.066l0.864,4.771l0.391,1.008l0.525,0.703l0.601,0.456   l0.621,0.259L735.266,353.732" /><path
       id="cz-ol"
       fill="#DDDDDD"
       stroke="#FFFFFF"
       d="M578.587,177.969l1.605,0.966l2.515-0.3l11.152,3.135l1.189,0.73l2.526,2.13   l1.389,0.739l1.495,0.018l3.309-0.687l1.271,0.387l-0.235,0.475l0.37,1.847l0.672,2.199l0.652,1.477l1.064,1.161l3.827,2.426   l2.581,0.747l5.096-0.149l2.242,0.958l-1.996,0.809l0.303,0.641l0.382,0.571l0.448,0.492l0.494,0.43l-0.135,2.213l0.214,2.151   l0.751,1.747l1.446,1.097l1.181-3.107l2.399-0.185l1.713,10.027l-0.106,0.791l-0.306,0.88l-0.466,0.879l-0.595,0.79l-0.691,0.611   l-0.753,0.343l-0.781-0.015l-1.506-0.952l-0.662-0.086l-0.6,0.241l-0.557,0.493l-2.498,3.679l-8.799,4.919l-1.438,1.673   l-0.53,1.029l-0.353,1.178l-0.23,2.578l-0.264,0.917l-1.104,1.796l-0.247,0.604l-0.074,0.766l1.232,4.991l0.038,0.806l-0.135,0.761   l-0.354,0.729l-6.464,9.087l-0.421,0.854l-0.28,0.917l-0.12,0.945l0.053,0.943l0.235,0.915l0.438,0.856l3.037,2.98l0.255,0.478   l0.048,0.511l-0.193,0.568l-3.117,4.089l-0.323,0.835l-0.207,0.95l-0.511,6.13l0.096,0.746l0.265,0.641l0.484,0.533l1.413,0.643   l4.695,0.622l0.471,0.316l0.254,0.451l0.3,1.708l0.235,0.54l0.441,0.451l9.291,4.734l0.765,0.024l3.053-1.678l0.764-0.123   l0.766,0.293l8.35,9.041l1.599,0.805l5.505,0.302l2.523-1.963l0.583-0.271l0.632,0.041l3.969,2.682l2.777,0.219l3.936-1.309   l3.134,1.502l2.521,2.172l0.483,0.761l0.177,0.731l-0.614,5.537l0.101,1.103l0.321,0.903l0.6,0.638l0.749,0.229l0.71-0.149   l1.984-1.281l0.626-0.212l0.614,0.142l0.611,0.646l3.32,6.984l0.72,0.759l3.422,1.598l2.901,2.523l1.166,1.487l0.403,0.896   l0.483,1.854l0.204,2.116l3.094,0.797l1.387,1.087l1.627,1.881l-1.627,4.393l-1.579,0.393l-1.341-0.129l-0.624-0.324l-1.021-1.183   l-0.548-0.425l-0.57-0.22l-0.577,0.006l-0.563,0.236l-0.517,0.485l-0.448,0.753l-0.698,2.016l-0.397,0.662l-0.438,0.425   l-1.344,0.749l-0.398,0.367l-0.341,0.573l-0.231,0.756l-0.11,0.82l0.038,1.634l0.305,1.803l-2.922,1.306l-9.538-1.938l-1.65-0.069   l-1.229,0.158l-1.317,0.523l-0.404,0.346l-0.202,0.489l0.155,0.672l0.708,1.687l0.271,1.068v0.743l-0.221,0.688l-0.354,0.51   l-0.473,0.471l-0.66,0.271l-0.774,0.118l-7.732-0.156l-0.842,0.212l-1.874,0.776l-1.414,0.808l-0.558,0.461l-0.453,0.567   l-0.521,0.932l-0.504,1.11l-0.54,0.924l-0.672,0.594l-0.644,0.226l-1.116-0.221l-4.661-2.107l-0.96-0.188l-2.293-1.252l-2.679-2.3   l-1.673-0.629l-0.677-0.079l-2.039-0.267l-0.446,2.681l-0.171,2.854l0.876,2.849l0.938,1.176l-0.973,2.007l-0.37,0.47l-3.709,3.585   l-0.591,0.748l-0.521,0.817l-0.354,0.396l-0.486,0.242l-0.354,0.022l-0.438-0.086l-7.073,0.175l-0.756,0.225l-0.489,0.595   l-0.296,0.861l-0.478,3.06l-0.275,0.815l-0.453,0.53l-0.545,0.188l-0.482-0.086l-0.42-0.283l-0.348-0.405l-0.482-0.86l-0.107-0.27   l0.084-0.296l0.119-0.781l0.044-0.95l-0.189-1.211l-1.293-3.013l-2.037-3.037l-2.21-2.136l-4.06-1.267l-1.811-1.062l-0.616-0.752   l-0.331-0.926l0.163-3.258l-0.144-0.843l-0.262-0.721l-0.362-0.606l-5.044-4.921l-0.545-0.896l-0.367-0.853l-0.729-3.895   l-0.97-2.525l-1.329-2.112l-0.771-0.688l-4.237-1.764l-1.066-0.055l-0.923,0.229l-0.697,0.585l-0.403,1.003l-0.196,1.996   l0.072,0.714l0.163,0.58l1.979,3.318l0.769,1.967l0.257,1.07l0.11,1.073l-0.084,1.025l-0.321,0.938l-1.265,1.986l-1.752,1.942   l-0.957,0.723l-0.966,0.431l-0.929,0.043l-5.904-4.593l-0.529-0.856l-0.084-0.809l0.475-0.746l0.705-0.726l0.514-0.771l0.334-0.815   l0.165-0.858l0.01-0.901l-0.137-0.948l-2.695-6.902l-0.281-1.123l-0.059-0.94l0.235-0.688l1.221-0.604l0.291-0.354l-0.005-0.456   l-0.259-0.537l-4.634-4.619l-1.475-2.5l-0.409-1.174l-0.092-0.975l0.303-0.667l0.772-0.247l3.447,0.827l0.662-0.18l0.586-0.644   l0.511-1.263l0.438-2.037l1.085-1.133l0.654-2.527l0.303-3.361l0.255-1.198l3.35-3.477l-0.807-5.698l-1.079-1.632l-1.752-0.667   l-0.555-0.601l-0.402-0.939l-0.288-2.826l-4.499-9.157l-1.734-2.62l-0.621-1.226l-0.227-1.423l0.171-1.327l1.756-3.787   l-0.152-4.048l0.104-4.549l-0.104-1.02l-0.808-3.225l-0.438-3.767l-0.204-0.83l-0.303-0.775l-0.762-1.3l-0.068-0.801l0.354-0.91   l1.857-1.072l0.401-0.156l0.658-0.446l2.223-2.397l3.337-2.392l0.489-0.468l0.303-0.603l0.168-0.665l-0.084-1.142l-0.134-0.597   l-0.691-1.826l0.153-1.775l2.726-9.192l4.113-10.514l1.216-0.311l1.021-0.912l1.808-2.516l1.301-0.903l0.955-0.035l2.008,0.719   l0.978-0.07l0.269-0.623l-0.021-2.052l0.303-0.465l1.593,0.026l0.65,0.447l0.507,1.026l1.156,1.736l1.313,0.5l0.695-1.447   l-0.213-2.237l-1.414-1.877l-0.158-4.125l-1.146-3.047l-1.975-2.178l-2.648-1.555l-2.029-2.101l-1.067-3.295l-0.807-3.623   l-1.235-3.114l-3.479-5.148l-0.011-2.378l2.951-1.796l2.479,0.317L578.587,177.969" /><path
       id="cz-pa"
       fill="#DDDDDD"
       stroke="#FFFFFF"
       d="M561.776,315.231l-1.179,0.259l-5.44-2.763l-2.541-0.89l-2.712-0.252   l-3.659,0.264l-0.993-0.116l-1.351-0.657l-0.823-0.214l-5.799,0.021l-0.94,0.396l-0.557,0.731l-0.135,1.406l-0.201,1.096   l-0.354,0.686l-0.959,0.796l-12.871,1.255l-2.614-0.234l-2.121-0.652l-4.448-2.879l-3.822-1.396l-1.164-0.833l-0.763-1.105   l-0.688-1.247l-0.978-1.222l-1.413-1.194l-4.082-2.717l-3.194-1.611l-2.196-0.663l-2.792-0.129l-2.342,0.229l-1.185-0.27   l-0.809-0.58l-0.354-0.741l-0.318-0.861l-0.772-0.784l-1.214-0.667l-2.498-0.535l-1.614-0.573l-1.464-0.742l-1.522-1.041   l-0.739-0.305l-0.655-0.007l-0.456,0.414l-0.254,0.436l-0.519,1.355l-0.392,0.658l-0.502,0.383l-1.212,0.44l-0.521,0.291   l-1.674,1.905l-1.061,0.667l-1.01,0.014l-1.195-0.333l-1.479-0.644l-0.945,0.087l-0.777,0.396l-2.747-0.735l-1.711-3.475   l-1.487-2.012l-1.769-1.416l-2.813-1.372l-0.416-0.417l-0.265-0.581l-0.234-1.694l-0.393-0.768l-0.58-0.65l-1.51-0.946l-2.91-0.693   l-4.952-3.88l-1.897-0.525l-8.277,0.669l-0.632-0.338l-1.148-1.281l-2.801-4.578l-2.09-2.474l-4.703-3.122l0.154-1.351l0.437-1.737   l0.54-1.601l0.252-0.981l0.122-0.926l0.069-3.371l0.066-0.729l0.133-0.492l0.288-0.607l0.234-0.844l-0.15-0.833l-1.016-1.211   l-0.792-0.655l-0.758-0.391l-1.43-0.41l-0.875-0.629l-3.961-3.822l-0.758-0.497l-3.69-1.204l-2.543-1.651l-0.789-0.804   l-1.246-2.001l0.528-0.823l2.009-0.977l2.209-0.559l0.965,0.043l0.204-1.739l0.051-0.595l-0.034-0.585l-0.406-1.915l-0.125-0.853   v-0.891l0.125-0.565l0.252-0.498l1.785-1.737l5.987,2.259l0.835-0.065l6.613-6.228l2.1-1.053l1.65-0.13l4.237,2.099l1.598,0.021   l3.323-0.992l0.565,0.188l4.415,3.025l0.838,0.188l0.698-0.227l0.525-0.666l1.435-4.6l0.501-1.076l0.686-0.823l5.394-1.586   l0.568,0.236l0.418,0.564l1.003,4.371l0.763,1.773l0.429,0.627l0.447,0.401l0.456,0.144l0.616-0.302l6.915-6.811l1.018-0.51   l4.53-0.08l3.011,0.905l0.604,0.447l0.318,0.64l0.112,0.908l0.029,3.439l0.226,1.086l0.491,0.908l0.857,0.64l6.239,1.25   l0.655,0.502l0.809,1.707l1.077,1.601l1.289,1.184l1.23,0.65l0.95,0.223l0.417,0.358l1.719,2.179l0.511,0.36l1.253,0.3l4.208,3.64   l1.579-1.188l1.686-0.684l9.702-0.912l1.487-0.785l0.645-0.609l0.538-0.765l0.406-0.932l0.506-2.122l0.456-0.742l0.619-0.533   l11.233-5.359l0.634-0.813l0.231-1.051l0.163-2.302l0.225-1.003l0.326-0.822l0.44-0.586l0.566-0.289l11.495,3.716l3.735,3.457   l4.558,2.371l4.409-0.324l3.346-4.576l2.411-1.75l1.323-1.882l1.18-2.294l1.953-2.96l2.435-2.094l2.155-0.315l2.176,0.149   l1.32-0.337l0,0l-4.113,10.514l-2.726,9.192l-0.153,1.775l0.69,1.826l0.135,0.597l0.084,1.142l-0.168,0.665l-0.303,0.603   l-0.489,0.468l-3.338,2.392l-2.222,2.397l-0.658,0.446l-0.401,0.156l-1.857,1.072l-0.354,0.91l0.068,0.801l0.762,1.3l0.303,0.775   l0.204,0.83l0.438,3.767l0.808,3.225l0.104,1.02l-0.104,4.549l0.152,4.048l-1.756,3.787l-0.171,1.327l0.226,1.423l0.622,1.226   l1.734,2.62l4.499,9.157l0.288,2.826l0.402,0.939l0.555,0.601l1.752,0.667l1.079,1.632l0.807,5.698l-3.35,3.477l-0.255,1.198   l-0.303,3.361l-0.654,2.527L561.776,315.231" /><path
       id="cz-ka"
       fill="#DDDDDD"
       stroke="#FFFFFF"
       d="M146.076,179.85l3.643,3.046l1.852,1.057l7.093,0.827l0.656,0.505l0.556,0.718   l0.711,1.455l0.792,1.057l1.381,1.032l2.71,0.563l3.304,0.168l3.063,0.791l1.672,0.919l0.689,0.803l0.556,1.099l0.539,2.25   l0.184,1.468l0.033,1.444l-0.2,3.683l0.033,1.133l0.184,2.002l0.389,2.168l0.133,1.753l-0.1,0.895l-0.203,0.837l-0.253,0.794   l0.336,1.368l0.825,1.719l2.295,3.549l0.723,1.857l0.236,1.383l-0.37,0.762l-0.437,0.709l-1.572,2.053l-0.203,0.372l-0.184,0.683   l0.336,0.534l0.809,0.832l2.276,1.635l1.264,1.155l-1.117,0.499l-0.723,0.732l-0.386,0.902l-0.11,1.01l0.105,1.054l0.262,1.037   l0.759,1.77l0.077,0.625l-0.48,0.457l-6.301,1.392l-0.42,0.441l-0.217,0.674l-0.05,0.854l0.091,0.984l1.276,5.012l-0.162,0.626   l-0.411,0.441l-0.594,0.269l-1.465,0.036l-1.401-0.549l-3.881-4.394l-7.491-1.468l-0.501,0.108l-1.136,0.708l-2.338,2.574   l-10.056,5.488l-0.578,0.511l-0.429,0.857l-1.462,7.133l-0.468,0.593l-0.689,0.201l-1.754-0.415l-2.91-1.476l-0.363-0.041   l-0.861,0.237l-2.703,2.023l-0.398,0.093l-0.403-0.086l-0.408-0.237l-2.369-2.498l-8.431-0.17l-0.721,0.389l-3.278,3.853   l-0.515,0.336l-1.551,0.262l-1.899-0.204l-3.202-1.192l-0.601,0.029l-0.578,0.262l-2.944,2.973l-0.806,0.461l-1.026,0.182   l-5.139-0.977l-0.673-1.219l-1.549-0.603l-4.444-2.613l0.124-1.831l0.752-2.277L92.6,254.3l-1.829-1.747l-3.995-0.417l-1.661-1.641   h-0.112l-16.429-8.82l-0.348-1.075l-0.022-1.538l-0.224-1.731l-0.965-1.67l-1.571-1.364l-1.74-1.006l-1.537-1.408l-0.943-2.563   l-0.067-2.538l0.763-3.853l-0.314-2.549l-0.831-2.015l-1.223-1.893l-2.66-2.928l-5.364-3.358l-1.122-2.018l1.358-2.053l1.122-0.737   l0.729-0.79l0.202-2.177l-0.404-2.424l-0.875-1.511l-2.503-2.618l2.737,0.203l5.208,0.386l2.087,1.485l0.64,1.572l-0.034,2.915   l0.426,1.326l1.212,1.071l1.583,0.492l3.12,0.079l0.774,0.43l0.359,0.614l-0.056,0.781l-0.482,0.957l-0.168,0.026l-0.146,0.052   l-0.146,0.097l-0.135,0.123l-0.292,0.325l-0.101,0.342l0.112,0.377l0.281,0.395l1.896,1.921l0.471,0.64l0.449,1.104l0.19,0.991   l0.112,0.876l1.302,4.671l1.1,1.716l1.852,0.237l1.515-1.104v-1.507l-0.628-1.814l-0.325-2.104l0.336-3.016l0.583-1.596   l2.144-2.754l0.292-2.694l0.886-1.326l1.212-0.852l1.235-1.299l3.366-6.139l1.167-1.16l3.187-1.793l1.291-1.16l0.393-0.229   l0.976,0.035l0.438-0.237l0.235-0.624l-0.067-0.668l-0.146-0.572l-0.022-0.352l0.292-0.765l0.225-0.862l0.381-0.844l0.808-0.704   l3.007-2.587l4.376-1.294l8.125-0.607l5.802,1.056l1.414-0.159l1.212-1.171l2.402-3.733l1.392-1.383l1.773-0.643l1.739-0.106   l1.941,0.273l0.673-0.264l1.526-1.013l0.976-0.203l0.909,0.273l10.055,6.139l3.714,0.211L146.076,179.85L146.076,179.85" /><path
       id="cz-jc"
       fill="#DDDDDD"
       stroke="#FFFFFF"
       d="M359.126,325.885l1.545,1.655l0.449,0.747l0.271,0.789l-0.007,0.789   l-0.387,0.744l-0.746,0.572l-3.839,1.116l-0.624,0.427l-0.276,0.66l1.62,5.842l0.291,2.725l-0.089,3.068l-2.292,9.064l-0.024,1.176   l0.278,1.022l0.475,0.801l1.797,1.75l0.305,0.437l0.202,0.584l0.072,0.804l-0.252,3.436l0.113,0.823l0.313,0.837l0.566,0.866   l4.077,3.814l2.059,1.256l0.994,0.137l0.969-0.314l1.867-1.729l0.945-0.334l0.936,0.092l1.75,1.017l2.428,2.382l3.122,2.082   l2.862,3.821l4.362,2.852l0.47-0.021l0.463-0.326l1.9-2.896l0.547-0.391l0.603-0.188l0.674,0.041l5.708,2.994l0.454,0.3   l1.235,0.344l5.284,0.619l0.934,0.369l0.607,0.864l0.437,1.402l0.218,2.701l0.269,1.478l0.355,1.125l0.538,0.713l5.156,4.914   l0.403,0.229l0.506,0.105l1.819-0.326l0.487-0.021l5.123,0.938l1.548-0.11l4.213-1.69l0.456-0.102l0.369,0.023l0.403,0.272   l5.158,5.103l0.69,0.916l0.202,0.593l-0.021,0.446l-0.282,0.394l-0.456,0.352l-0.558,0.295l-0.737,0.185l-2.397,0.156l-0.571,0.104   l-0.285,0.283l-0.255,0.662l-0.117,0.729l-0.116,1.186l-0.238,0.809l-0.537,1.105l-3.534,4.185l-0.461,0.658l-0.201,0.644   l-0.234,1.327l0.089,0.674l0.146,0.42l0.201,0.072h0.341l0.374,0.155l0.336,0.405l0.472,1.12l0.404,0.739l0.673,0.466l0.756,0.173   l1.718,0.134l1.27,0.276l0.521,0.331l0.489,0.47l0.538,0.853l0.101,0.585v0.68l-0.523,1.729l-1.654,4.186l-0.403,1.324l-0.453,0.99   l-0.269,1.563l-0.008,0.041l0,0l-2.49-0.969l-5.365-4.665l-2.334-1.342l-4.825-1.632l-5.216-2.666l-2.426-0.692l-5.082-0.059   l-0.54-0.376l-0.449-0.821l-0.549-0.684l-0.83,0.007l-0.439,0.677l-0.269,2.223l-0.357,0.871l-1.504,1.812l-0.562,0.36   l-8.283,2.238l-2.155-0.043l0.72-2.358l0.043-2.246l-0.458-2.248l-0.797-2.335l-8.451-0.693l-6.037-2.077l-2.38,0.308l-0.348,0.273   l-0.168,0.557v0.771l0.101,0.897l-1.48,3.488l-0.046,4.708l0.449,5.055l-0.012,4.566l-2.299,10.337l-0.787,2.078l-0.18,1.15   l0.213,1.039l0.473,1.303l0.482,1.065l0.235,0.298l-1.245,2.886l-2.2,0.204l-5.61-2.308l-5.667-0.782l-1.639,0.628l-0.641,1.567   l-0.437,2.001l-1.089,1.932l-0.55,3.147l-5.71,5.033l-2.054,3.341l-0.394,4.438l0.055,5.021l-0.549,4.267l-0.492,0.494l-1.684,1.69   l-1.785-0.119l-0.852-1.072l-0.641-1.543l-1.166-1.55l-0.708-0.156l-1.66,0.581l-0.842-0.094l-0.348-0.691l-0.012-1.094   l-0.134-1.049l-0.696-0.616l-1.67,0.137l-3.256,1.569l-1.626,0.363l-1.279-0.312l-4.331-2.275l-2.606-3.072l-1.581,1.094   l-2.436,6.48l-1.715,1.77l-5.646,2.438l-2.188,1.762l-0.852,0.339l-1.043,0.117l-10.773-3.815l-15.385-1.729l-3.692-1.553   l-0.91-0.814l-1.874-2.343l-0.471-0.898l-0.506-2.241l0.201-0.476l0.617-0.23l0.729-1.538l0.326-0.236l0.528,0.104l0.495-0.153   l0.202-1.026l-0.281-1.003l-0.65-0.458l-0.753-0.309l-0.549-0.519l-0.696-1.352l-1.807-2.777l-0.952-1.039l-7.307-4.031   l-2.38-1.981l-1.975-1.548l-2.063-1.133l-4.366-1.175l-2.121-2.205l-5.241-10.479l-2.525-3.948l-1.526-0.854l-4.045-0.641   l-2.054-0.975l-1.852-1.85l-1.694-2.58l-1.156-3.004l-0.269-3.126l-1.976,0.221l-1.852-1.023l-1.84-1.479l-1.908-1.171l-1.79-0.382   l-0.005-0.045l-0.134-1.548l2.362-5.036l2.524-3.94l2.34-2.316l0.511-0.881l0.315-0.981l0.033-1.425l-0.103-0.823l-0.179-0.957   l-0.055-1.79l0.392-2.403l1.398-3.618l1.145-1.298l1.009-0.482l1.312,0.266l0.473-0.093l0.42-0.31l1.05-1.437l2.863-5.427   l0.976-0.958l1.126-0.733l0.882-0.321l0.589-0.55l0.083-0.624l-0.472-1.169l-1.52-1.562l-0.437-0.609l-0.153-0.586l0.067-0.643   l0.389-0.65l0.695-0.909l0.336-0.618l0.136-0.648v-0.919l-0.606-1.591l-0.033-0.542l0.133-0.65l0.522-0.657l0.437-0.402   l1.887-1.136l0.52-0.445l0.37-0.723l0.439-1.171l0.606-2.095l0.976-2.146l2.092-3.506l0.456-1.025l0.133-1.121l-0.133-1.42   l-0.589-2.939l-0.236-2.054l0.186-2.574l0.756-3.134l0.103-0.833l-0.153-1.423l-1.379-5.408l-1.539-3.443l6.301-3.704l0.623-0.078   l0.511,0.132l1.262,0.878l0.607,0.204l2.272,0.084l0.722,0.163l0.607,0.223l0.612,0.451l1.97,1.135l0.909,0.108l1.128-0.127   l1.941-1.014l0.59-0.448l0.823-0.425l5.24-1.639l0.355-0.279l0.269-0.317l0.59-1.931l0.521-1.14l0.708-0.59l1.212-0.655   l0.775-0.139l0.83,0.093l1.092,0.598l1.332,1.057l0.641,0.211l2.018,0.161l1.401,0.491l2.882,0.107l6.334-0.832l2.152-0.883   l1.96-1.972l0.456-0.313l0.518-0.166l1.298-0.247l1.74,0.012l1.296,0.339l0.573,0.306l0.353,0.372l0.403,1.094l0.218,0.439   l0.238,0.248l0.302,0.12l0.42,0.069l0.523,0.199l0.386,0.271l0.456,0.542l0.216,0.39l0.523,0.766l0.243,0.232l0.269,0.209   l0.319,0.168l0.489,0.173l0.825,0.074l1.109-0.133l5.089-2.864l0.893-0.199l1.349-0.061l1.447,0.362l1.807,1.003l2.037,0.27   l12.064-0.489l1.327,0.359l-0.098,0.502l-0.034,0.466l0.05,0.424l0.185,0.19l2.582,0.414l1.159-0.155l1.178-0.347l2.594-1.634   l1.586-1.644l0.744-0.347l3.515-0.756l1.523-1.207l0.688-1.036l0.269-4.389l0.067-0.519l0.103-0.479l0.672-1.375l0.454-0.676   l0.338-0.398l1.329-1.148l0.523-0.184l0.42,0.095l0.595,0.634l0.775,1.063l0.353,0.362l0.573,0.332l3.213,0.985l0.598,0.509   l0.369,0.634l0.067,0.448l0.048,1.082l0.557,0.349l1.097,0.104l2.087-0.381l1.31,0.468l0.725,0.468l0.259,0.545l0.336,1.062   l0.336,0.745l0.454,0.685l0.557,0.614l0.506,0.45l0.487,0.311l0.504,0.199L359.126,325.885" /><path
       id="cz-jy"
       fill="#DDDDDD"
       stroke="#FFFFFF"
       d="M518.647,317.015l-0.242,1.856l-0.506,1.937l-1.353,3.339l-0.019,0.876   l0.277,0.727l2.987,2.978l0.381,0.813l0.237,0.964l0.089,1.037l-0.045,1.031l-0.183,0.939l-0.311,0.773l-0.432,0.521l-3.251,0.583   l-0.495,0.375l-0.3,0.558l-0.043,0.776l0.631,2.236l0.242,7.615l0.219,1.2l2.044,6.415l0.135,1.148l-0.117,1.003l-0.433,0.813   l-9.47,5.8l-1.37,1.387l-1.142,1.854l-0.399,1.066l-0.242,1.141l-0.064,1.033l0.085,0.8l0.188,0.624l0.766,1.403l0.178,0.508   l0.069,0.622l-0.125,0.568l-0.334,0.36l-2.289,0.916l-0.524,0.502l-0.392,0.771l-0.504,2.037l-0.157,2.092l0.109,0.943l0.27,0.802   l0.447,0.611l1.353,0.688l0.565,0.472l0.4,0.603l0.213,0.712l0.005,0.799l-0.228,0.866l-0.484,0.907l-1.52,1.838l-0.455,0.856   l-0.209,0.809l-0.011,0.775l0.146,0.746l0.873,2.133l0.194,0.725l-0.006,0.773l-0.175,0.799l-0.753,1.627l-2.371,2.91l-7.638,2.464   l-0.443,0.403l-2.246,3.354l-0.903,0.739l-1.126,0.396l-7.488-1.234l-0.484,0.127l-1.934,1.457l-0.672,0.272l-3.254,0.138   l-1.301-0.367l-0.568-0.453l-0.523-0.701l-0.475-0.996l-0.563-0.758l-0.718-0.067l-0.804,0.444l-2.805,3.486l-0.451-0.135   l-1.022-0.02l-0.572,0.213l-0.53,0.466l-0.422,0.784l-0.55,2.323l-0.535,0.715l-0.703,0.362l-3.762-0.362l-3.056,1.396   l-7.854,7.146l-0.674,0.092l-0.632-0.212l-3.261-2.841l-0.759-0.275l-0.736,0.043l-0.687,0.275l-1.141,0.902l-0.751,0.914   l-0.343,0.721l-0.878,1.298l-0.569,0.465l-0.613,0.136l-0.637-0.36l-2.049-3.251l-0.794-0.695l-0.792-0.413l-0.739-0.125   l-0.643,0.168l-0.497,0.459l-0.305,0.753l-0.102-0.585l-0.538-0.853l-0.488-0.47l-0.521-0.331l-1.27-0.276l-1.719-0.134   l-0.756-0.173l-0.672-0.467l-0.405-0.738l-0.471-1.12l-0.336-0.405l-0.374-0.156h-0.341l-0.201-0.071l-0.146-0.42l-0.09-0.675   l0.235-1.326l0.201-0.644l0.461-0.658l3.534-4.185l0.537-1.105l0.237-0.809l0.117-1.186l0.117-0.729l0.255-0.662l0.285-0.283   l0.571-0.104l2.396-0.156l0.738-0.185l0.557-0.295l0.456-0.352l0.283-0.394l0.021-0.446l-0.202-0.593l-0.69-0.916l-5.159-5.103   l-0.402-0.272l-0.369-0.023l-0.456,0.102l-4.213,1.69l-1.548,0.11l-5.123-0.938l-0.487,0.021l-1.819,0.326l-0.506-0.105   l-0.403-0.229l-5.156-4.914l-0.538-0.713l-0.355-1.125l-0.269-1.478l-0.218-2.701l-0.437-1.402l-0.607-0.864l-0.934-0.369   l-5.284-0.619l-1.235-0.344l-0.454-0.3l-5.708-2.994l-0.674-0.041l-0.603,0.188l-0.547,0.392l-1.9,2.896l-0.463,0.326l-0.47,0.021   l-4.362-2.852l-2.862-3.822l-3.122-2.082l-2.428-2.381l-1.75-1.017l-0.936-0.092l-0.945,0.334l-1.867,1.729l-0.969,0.314   l-0.994-0.138l-2.059-1.255l-4.077-3.814l-0.566-0.866l-0.312-0.837l-0.113-0.823l0.252-3.436l-0.072-0.805l-0.202-0.583   l-0.305-0.437l-1.797-1.75l-0.475-0.801l-0.278-1.022l0.024-1.176l2.292-9.064l0.089-3.068l-0.291-2.725l-1.62-5.842l0.276-0.66   l0.624-0.427l3.839-1.116l0.746-0.572l0.387-0.744l0.007-0.789l-0.271-0.789l-0.449-0.747l-1.545-1.655l0.875-0.372l1.27-1.142   l0.47-0.818l0.302-0.771l0.168-0.564l0.355-0.631l0.302-0.328l2.087-1.111l0.303-0.359l0.101-0.458l-0.233-0.978l-0.069-0.399   l0.05-0.441l0.185-0.382l0.303-0.285l0.506-0.127l0.897,0.064l4.276,1.896l1.195,0.062l1.485-0.189l2.56-0.751l3.155,0.076   l1.799,0.746l3.098-0.486l8.511-4.113l0.269-2.026l-0.286-1.83l-0.554-1.459l-0.554-0.914l-0.614-0.698l-4.897-3.677l-0.504-0.687   l-0.187-0.728l0.321-1.212l0.521-0.923l2.474-2.855l0.909-1.301l0.271-0.672l0.166-0.672l0.137-0.731l0.235-0.71l0.355-0.591   l0.458-0.562l0.454-0.412l0.137-0.07l0.739-0.234l0.338,0.02l0.252,0.087l0.403,0.312l0.943,0.563l0.588,0.123l0.506,0.004   l0.386-0.103l4.451-2.646l3.776-1.487l3.87-3.454l0.658-0.375l0.41-0.011l0.588,0.166l1.785,0.252l1.464-0.264l0.923-0.451   l0.624-0.571l0.406-0.626l0.256-0.703l0.415-2.697l0.175-0.703l0.218-0.679l0.185-0.398l0.336-0.59l0.389-0.573l0.806-0.856   l0.355-0.243l1.128-0.41l0.405-0.456l0.151-0.849l-0.034-1.776l0.082-1.392l4.704,3.122l2.09,2.474l2.801,4.578l1.148,1.281   l0.632,0.338l8.276-0.669l1.898,0.525l4.952,3.88l2.91,0.693l1.51,0.947l0.58,0.649l0.392,0.769l0.235,1.693l0.264,0.581   l0.417,0.417l2.813,1.372l1.769,1.416l1.487,2.011l1.711,3.476l2.747,0.735l0.776-0.396l0.945-0.087l1.48,0.644l1.194,0.333   l1.011-0.014l1.061-0.667l1.673-1.905l0.522-0.291l1.212-0.44l0.502-0.382l0.391-0.66l0.52-1.354l0.254-0.435l0.456-0.416   l0.655,0.008l0.738,0.305l1.523,1.041l1.464,0.742l1.614,0.572l2.498,0.535l1.214,0.668l0.771,0.784l0.319,0.861l0.353,0.741   l0.81,0.58l1.184,0.27l2.342-0.229l2.792,0.129l2.196,0.663l3.195,1.611l4.082,2.717l1.413,1.194l0.977,1.222l0.688,1.247   l0.763,1.105l1.164,0.833l3.822,1.396l4.447,2.88L518.647,317.015" /><path
       id="cz-pr"
       fill="#DDDDDD"
       stroke="#FFFFFF"
       d="M327.857,229.556l0.369,0.735l0.386,0.512l0.372,0.342l0.742,0.415   l2.277,0.744l0.624,0.528l0.47,0.814l0.151,0.848l-0.05,0.537l-0.252,0.614l-0.909,1.206l-3.019,2.984l-0.338,0.484l-0.132,0.343   l-0.017,0.273l0.115,0.329l0.506,1.02l0.118,0.468l0.067,0.557l-0.151,1.509l0.084,0.432l0.218,0.605l0.238,0.511l0.199,0.545   l0.034,0.372l-0.034,0.427l-0.132,0.377l-0.641,1.211l-2.423,0.619l-3.947,0.194l-1.884-0.194l-1.531-0.41l-0.322-0.19   l-0.218-0.098l-0.288-0.034l-0.727,0.105l-1.061,0.314l-1.752,1.3l-1.598,1.509l-0.658,0.379l-4.852,1.547l-7.8,1.387l-4.552,1.867   l-1.195-0.204l-0.357-0.154l-0.281-0.208l-0.192-0.192l-0.151-0.269l-0.101-0.979l0.069-1.135l0.065-0.513l0.067-1.178   l-0.118-0.602l-0.286-0.653l-2.93-3.393l-0.269-0.393l-0.238-0.439l-0.232-0.585l-0.574-2.018l-0.489-1.073l-0.291-0.492   l-2.678-3.358l-0.336-0.503l-0.118-0.385v-0.462l0.101-0.411l0.151-0.43l0.302-0.676l0.137-0.401l0.05-0.394l-0.17-0.337   l-0.286-0.319l-0.624-0.55l-2.001-1.22l-0.336-0.394l-0.175-0.314l0.021-0.264l0.034-0.227l0.12-0.262l0.25-0.279l2.054-1.203   l5.142-1.896l0.658-0.082l0.638,0.082l2.699,1.107l0.538,0.102l0.624-0.154l0.605-0.35l0.437-0.502l0.154-0.42l-0.051-0.518   l-0.168-0.603l-0.101-0.657l0.084-0.56l0.252-0.456l0.454-0.324l14.286-4.168l5.357-0.623l1.178,0.229l0.691,0.289l0.562,0.411   l1.732,1.821l1.349,0.972l0.47,0.64l0.372,1.085l0.47,0.709l0.809,0.395l2.546,0.677l0.405,0.236l0.403,0.342L327.857,229.556" /><path
       id="cz-st"
       fill="#DDDDDD"
       stroke="#FFFFFF"
       d="M381.721,161.878l0.219,0.653l-0.031,0.636l-0.338,0.604l-0.353,0.542   l-0.086,0.088l-0.37,0.887l-0.067,1.351l0.288,1.018l0.739,1.348l0.353,0.789l0.221,0.737l0.991,6.886l0.086,1.67l-0.17,1.398   l-0.369,0.96l-0.924,1.709l-0.943,1.283l-0.288,0.823l-0.353,1.369l-0.151,2.505l0.151,1.125l0.235,0.634l0.286,0.211l5.375,2.321   l0.677,0.447l0.672,0.652l0.926,1.506l0.403,1.341l0.302,1.949l0.372,0.904l0.588,0.65l0.624,0.243l0.792,0.075l0.763-0.062   l2.003-0.448l0.993,0.079l2.966,0.711l4.446-0.579l0.789,0.056l0.729,0.312l0.893,0.818l0.49,0.987l0.319,0.961l0.403,2.905   l0.017,2.298l0.254,1.395l0.47,1.807l1.667,4.821l0.218,0.947l-0.069,0.421l-0.132,0.386l-0.134,0.333l-0.456,0.674l-1.769,1.84   l-0.166,0.506l-0.034,0.877l0.267,0.534l0.302,0.393l1.735,1.208l0.83,0.825l1.046,1.264l1.427,2.132l0.422,1.059l0.067,0.699   l-0.319,0.476l-1.785,1.737l-0.252,0.498l-0.125,0.565v0.891l0.125,0.853l0.406,1.915l0.034,0.585l-0.051,0.595l-0.204,1.739   l-0.965-0.043l-2.209,0.559l-2.009,0.977l-0.528,0.823l1.246,2.001l0.789,0.804l2.543,1.651l3.69,1.204l0.758,0.497l3.961,3.822   l0.875,0.629l1.43,0.41l0.758,0.391l0.792,0.655l1.015,1.211l0.151,0.833l-0.235,0.844l-0.288,0.607l-0.132,0.492l-0.066,0.729   l-0.069,3.371l-0.122,0.926l-0.252,0.981l-0.54,1.601l-0.437,1.737l-0.154,1.351l-0.082,1.392l0.034,1.776l-0.151,0.849   l-0.405,0.456l-1.128,0.41l-0.355,0.243l-0.806,0.856l-0.389,0.573l-0.336,0.59l-0.185,0.398l-0.218,0.679l-0.175,0.703   l-0.415,2.697l-0.256,0.703l-0.406,0.626l-0.624,0.571l-0.923,0.451l-1.464,0.264l-1.785-0.252l-0.588-0.166l-0.41,0.011   l-0.658,0.375l-3.87,3.455l-3.776,1.486l-4.451,2.646l-0.386,0.103l-0.506-0.004l-0.588-0.123l-0.943-0.563l-0.403-0.312   l-0.252-0.087l-0.338-0.02l-0.739,0.234l-0.137,0.07l-0.454,0.412l-0.458,0.562l-0.355,0.591l-0.235,0.711l-0.137,0.73   l-0.166,0.672l-0.271,0.672l-0.909,1.301l-2.474,2.855l-0.521,0.923L385.749,302l0.187,0.729l0.504,0.686l4.897,3.677l0.614,0.698   l0.554,0.914l0.554,1.459l0.286,1.83l-0.269,2.027l-8.511,4.112l-3.098,0.486l-1.799-0.746l-3.155-0.076l-2.56,0.751l-1.485,0.189   l-1.195-0.062l-4.276-1.896l-0.897-0.064l-0.506,0.127l-0.303,0.285l-0.185,0.382l-0.05,0.441l0.069,0.4l0.233,0.977l-0.101,0.458   l-0.303,0.36l-2.087,1.11l-0.302,0.328l-0.355,0.631l-0.168,0.564l-0.302,0.771l-0.47,0.818L360,325.51l-0.875,0.372l-0.708,0.104   l-0.504-0.199l-0.487-0.31l-0.506-0.451l-0.557-0.614l-0.454-0.684l-0.336-0.746l-0.336-1.062l-0.259-0.545l-0.725-0.468   l-1.31-0.468l-2.087,0.381l-1.097-0.104l-0.557-0.349l-0.048-1.082l-0.067-0.448l-0.369-0.634l-0.598-0.509l-3.213-0.985   l-0.573-0.332l-0.353-0.361l-0.775-1.064l-0.595-0.634l-0.42-0.094l-0.523,0.183l-1.329,1.149l-0.338,0.397l-0.454,0.676   l-0.672,1.375l-0.103,0.479l-0.067,0.519l-0.269,4.39l-0.688,1.035l-1.523,1.207l-3.515,0.757l-0.744,0.346l-1.586,1.644   l-2.594,1.635l-1.178,0.346l-1.159,0.156l-2.582-0.415l-0.185-0.19l-0.05-0.424l0.034-0.466l0.098-0.502l-1.327-0.359   l-12.064,0.489l-2.037-0.27l-1.807-1.003l-1.447-0.361l-1.349,0.06l-0.893,0.199l-5.089,2.865l-1.109,0.132l-0.825-0.074   l-0.489-0.173l-0.319-0.168l-0.269-0.209l-0.243-0.232l-0.523-0.766l-0.216-0.39l-0.456-0.542l-0.386-0.271l-0.523-0.199   l-0.42-0.069l-0.302-0.119l-0.238-0.249l-0.218-0.439l-0.403-1.094l-0.353-0.372l-0.573-0.305l-1.296-0.34l-1.74-0.012   l-1.298,0.247l-0.518,0.166l-0.456,0.313l-1.96,1.971l-2.152,0.883l-6.334,0.832l-2.882-0.106l-1.401-0.492l-2.018-0.161   l-0.641-0.211l-1.332-1.057l-1.092-0.598l-0.83-0.093l-0.775,0.139l-1.212,0.655l-0.708,0.59l-0.521,1.14l-0.59,1.931l-0.269,0.317   l-0.355,0.279l-5.24,1.639l-0.823,0.426l-0.59,0.447l-1.941,1.014l-1.128,0.127l-0.909-0.108l-1.97-1.135l-0.612-0.451   l-0.607-0.223l-0.722-0.163l-2.272-0.084l-0.607-0.204l-1.262-0.878l-0.511-0.132l-0.623,0.079l-6.301,3.704l-0.017-1.523   l0.136-0.583l0.208-0.466l0.47-1.461l0.319-1.624v-0.978l-0.241-1.169l-0.74-1.133l-1.045-1.281l-0.37-0.768l-0.27-1.003   l-0.15-1.724l0.1-4.146l-0.203-0.933l-0.42-0.83l-0.959-1.132l-0.725-0.516l-0.539-0.269l-0.487-0.163l-0.544-0.375l-0.439-0.606   l-0.253-1.291l0.103-0.598l0.286-0.433l0.64-0.555l0.191-0.44l-0.067-0.412l-0.27-0.438l-1.403-0.858l-0.017-0.227l0.656-0.555   l0.875-0.511l0.174-0.492l-0.141-0.603l-1.651-1.489l-0.437-0.693l0.286-0.794l0.589-0.795l1.283-1.245l1.229-0.775l1.365-0.572   l3.18-0.792l0.833-0.418l0.84-0.781l2.693-3.026l0.353-0.735l-0.017-0.512l-0.27-0.574l-0.773-0.449l-1.062-0.428l-0.27-0.242   l-0.15-0.437l0.033-0.996l0.186-0.852l1.076-3.724l0.067-0.844l-0.117-0.718l-0.253-1l-0.066-0.59v-0.47l1.364-3.436l0.117-0.46   l0.1-0.653l0.033-0.756l-0.066-1.454l0.033-0.727l0.236-0.562l0.236-0.247l0.32-0.084l1.05-0.104l0.589-0.18l0.454-0.214   l0.269-0.173l0.118-0.3l0.053-0.449l-0.12-0.818l-1.059-3.606l-0.186-0.854l-0.034-0.715l0.067-0.729l0.17-0.595l-0.456-0.804   l-0.964-1.025l-5.694-2.91l-0.236-0.763l-0.103-0.66l-0.454-0.619l-0.689-0.444l-3.619-1.106l-0.613-0.343l-0.739-0.636   l-2.844-3.141l-0.945-0.628l-1.176-0.545l-2.044-0.576l-1.076-0.079l-0.875,0.074l-1.465,0.346l-1.515,0.144l-1.942-0.245   l-0.959-0.602l-5.272-5.101l-1.887-0.917l-1.79-0.417l-1.431-0.559l-0.623-0.02l-0.556,0.175l-2.205,1.233l-1.179,0.295   l-0.544,0.026l-0.606-0.079l-0.539-0.226l-0.403-0.525l-0.017-0.725l0.456-1.214l0.437-0.891l0.32-0.831l0.05-0.909l-0.05-0.734   l-1.295-3.385l1.126-1.618l1.37-0.708l1.684-0.463l1.076-0.553l2.784-2.8l1.262-0.858l1.045-1.312l1.042-2.509l1.448-2.307   l0.606-0.683l1.267-0.729l6.354-2.642l4.645-3.037l1.017-1.068l0.37-0.317l0.79-0.483l0.926-0.306l1.195,0.017l0.675,0.175   l0.673,0.333l0.453,0.149h0.539l1.909-0.509l10.347-5.402l0.926-0.081l0.876,0.379l0.705,0.526l0.826,0.308l0.756-0.124l1.211-0.96   l0.624-0.646l0.679-0.931l0.658-0.746l6.433-4.047l1.029-0.413l1.464,0.097l0.909-0.087l0.84-0.344l0.648-1.001l0.218-0.633   l0.034-0.569l-0.142-1.082l0.021-0.721l0.12-0.939l0.252-0.738l0.454-0.729l0.842-0.396l1.313-0.309l4.535-0.149l2.658,0.523   l2.548,0.927l2.188,0.273l8.556-1.467l3.542,1.327l0.557-0.133l0.79-0.387l2.344-1.964l0.909-0.592l0.842-0.247l3.064-0.254   l1.908,0.131l0.842-0.18l0.857-0.471l0.859-1.292l0.372-0.855l0.235-0.712l0.185-0.395l0.523-0.783l0.101-0.414v-0.634l-0.153-0.57   l-0.403-1.21l-0.134-0.55l0.017-0.582l0.118-1.091l-0.05-0.668l-0.168-0.651l-0.504-1.507l-0.153-0.687l0.103-0.678l0.403-0.335   l0.876,0.159l1.435,0.657l0.574,0.154l0.573,0.052l0.638-0.273l0.943-0.554l3.162-2.648l0.883-0.47L307.96,173l0.166-0.339   l0.17-0.427l0.37-1.323l0.137-1.389v-1.044l0.115-0.78l0.153-0.587l0.319-0.662l0.403-0.607l0.742-0.521l1.178-0.343l4.837-0.116   l2.059,0.335l1.665-0.114l0.761,0.114l0.485,0.248l0.221,0.418l0.202,0.499l0.084,0.414l0.067,0.489l0.05,0.551l0.137,0.485   l0.252,0.397l0.303,0.219l0.943,0.127l1.888-0.163l9.737-2.543l4.4-2.946l3.976-1.893l0.959-0.732l1.279-1.27l0.826-0.575   l1.807-0.979l0.91-0.813l0.775-0.963l1.145-2.287l0.437-0.667l0.691-0.781l2.239-1.901l0.628-0.782l1.262-2.056l0.406-0.494   l0.521-0.248l0.624,0.036l1.058,0.441l0.893,0.027l1.233-0.566l0.792-0.203l0.761,0.115l1.041,0.876l0.893,0.424l2.599-0.186   l0.554,0.159l0.574,0.389l2.068,2.465l0.66,0.627l0.806,0.301l0.729,0.16l2.81-0.751l0.96,5.016l1.145,2.112L381.721,161.878    M327.857,229.556l-0.725-1.045l-0.403-0.342l-0.405-0.236l-2.546-0.677l-0.809-0.395l-0.47-0.709l-0.372-1.085l-0.47-0.64   l-1.349-0.972l-1.732-1.821l-0.562-0.411l-0.691-0.289l-1.178-0.229l-5.357,0.623l-14.286,4.168l-0.454,0.324l-0.252,0.456   l-0.084,0.56l0.101,0.657l0.168,0.603l0.051,0.518l-0.154,0.42l-0.437,0.502l-0.605,0.35l-0.624,0.154l-0.538-0.102l-2.699-1.107   l-0.638-0.082l-0.658,0.082l-5.142,1.896l-2.054,1.203l-0.25,0.279l-0.12,0.262l-0.034,0.227l-0.021,0.264l0.175,0.314l0.336,0.394   l2.001,1.22l0.624,0.55l0.286,0.319l0.17,0.337l-0.05,0.394l-0.137,0.401l-0.302,0.676l-0.151,0.43l-0.101,0.411v0.462l0.118,0.385   l0.336,0.503l2.678,3.358l0.291,0.492l0.489,1.073l0.574,2.018l0.232,0.585l0.238,0.439l0.269,0.393l2.93,3.393l0.286,0.653   l0.118,0.602l-0.067,1.178l-0.065,0.513l-0.069,1.135l0.101,0.979l0.151,0.269l0.192,0.192l0.281,0.208l0.357,0.154l1.195,0.204   l4.552-1.867l7.8-1.387l4.852-1.547l0.658-0.379l1.598-1.509l1.752-1.3l1.061-0.314l0.727-0.105l0.288,0.034l0.218,0.098   l0.322,0.19l1.531,0.41l1.884,0.194l3.947-0.194l2.423-0.619l0.641-1.211l0.132-0.377l0.034-0.427l-0.034-0.372l-0.199-0.545   l-0.238-0.511l-0.218-0.605l-0.084-0.432l0.151-1.509l-0.067-0.557l-0.118-0.468l-0.506-1.02l-0.115-0.329l0.017-0.273l0.132-0.343   l0.338-0.484l3.019-2.984l0.909-1.206l0.252-0.614l0.05-0.537l-0.151-0.848l-0.47-0.814l-0.624-0.528l-2.277-0.744l-0.742-0.415   l-0.372-0.342l-0.386-0.512L327.857,229.556" /><path
       id="cz-li"
       fill="#DDDDDD"
       stroke="#FFFFFF"
       d="M424.2,116.026l1.538,4.941l3.607,7.328l0.25,1.353l-0.194,0.968l-0.397,0.943   l-0.276,1.307l-0.142,1.546l0.156,3.333l0.315,1.544l0.489,1.304l1.339,1.723l0.495,0.876l0.328,0.951l0.185,1.004l0.049,1.034   l-0.064,1.041l-0.766,3.649l0.034,0.676l0.139,0.655l3.722,8.573l0.23,0.997l0.041,1.056l-0.177,1.145l-0.415,0.945l-0.615,0.504   l-0.787,0.16l-8.316-1.474l-1.232-0.838l-2.274-2.435l-0.614-0.323l-0.626-0.112l-0.641,0.053l-2.8,0.96l-0.604,0.49l-0.341,0.912   l-0.369,5.439l-0.25,1.209l-0.47,0.911l-0.646,0.543l-0.708,0.216l-0.758-0.084l-0.79-0.356l-1.622-1.398l-3.321-4.28l-2.081-1.68   l-4.734-1.921l-1.166,0.011l-1.058,0.439l-4.698,5.311l-0.633,0.279l-0.677-0.079l-0.736-0.381l-6.003-5.069l-1.735-0.614   l-0.617,0.015l-0.465,0.135l-0.327,0.186l-0.25,0.232l-3.86-3.477l-1.145-2.112l-0.96-5.016l-2.81,0.751l-0.729-0.16l-0.806-0.301   l-0.66-0.627l-2.068-2.465l-0.574-0.389l-0.554-0.159l-2.599,0.186l-0.893-0.424l-1.041-0.876l-0.761-0.115l-0.792,0.203   l-1.233,0.566l-0.893-0.027l-1.058-0.441l-0.624-0.036l-0.521,0.248l-0.406,0.494l-1.262,2.056l-0.628,0.782l-2.239,1.901   l-0.691,0.781l-0.437,0.667l-1.145,2.287l-0.775,0.963l-0.91,0.813l-1.807,0.979l-0.826,0.575l-1.279,1.27l-0.959,0.732   l-3.976,1.893l-4.4,2.946l-9.737,2.543l-1.888,0.163l-0.943-0.127l-0.303-0.219l-0.252-0.397l-0.137-0.485l-0.05-0.551   l-0.067-0.489l-0.084-0.414l-0.202-0.499l-0.221-0.418l-0.485-0.248l-0.761-0.114l-1.665,0.114l-2.059-0.335l-4.837,0.116   l-1.178,0.343l-0.84-3.916l-7.738-6.406l-6.106-19.249l-0.129-0.903l0.166-0.783l0.379-0.663l0.499-0.542l1.528-0.964l1.987-5.168   l0.456-0.618l2.45-2.288l0.297-0.607l0.149-0.729l-0.058-1.814l0.223-0.858l0.384-0.766l0.475-0.662l1.373-1.287l1.221-7.086   l0.413-0.838l0.607-0.179l0.756,0.35l5.669,5.885l0.926,0.221l0.893-0.202l0.813-0.562l0.701-0.866l0.547-1.108l0.358-1.289   l0.201-2.659l0.211-0.886l0.336-0.585l0.446-0.342l3.275-0.285l0.53-0.333l0.398-0.468l0.286-0.537l0.3-1.003l0.065-0.457   l0.528,1.289l3.77,1.066l1.55,0.862l4.151,3.162l4.029,0.906l2.358,0.089l1.749-0.479l1.056-1.217l1.032-1.99l1.718-4.612   l2.311,0.08l3.928-1.103l12.4,0.916l0.226-1.484l-0.137-5.977l-0.123-0.489l-0.067-0.659l0.101-0.961l0.302-0.587l1.068-1.211   l0.336-0.872l-0.123-5.005l-1.651-2.415l-1.761-1.399l-0.46-1.952h0.012l0.492-0.588l0.552-0.455l0.617-0.294l0.617-0.134   l1.571-1.15l0.504-0.793l0.305-1.423l2.063,1.904l5.5,1.213l0.919,1.703l1.281,1.266l1.526,0.757l1.221-0.25l0.36-1.756v-0.018   l0.977-2.256l1.404-0.99l1.267,0.642l0.506,2.622l1.02,2.531l6.183,0.098l2.896,1.443l1.74,2.824l-0.113,1.665l-0.943,1.808   l-0.763,3.169l0.326,2.447l1.01,3.033l1.279,2.846l1.157,1.867l2.164,1.742l1.965,0.871l1.648,1.369l1.303,3.224l0.034,1.669   l-0.305,1.723l-0.089,1.633l0.696,1.42l1.355,0.43l0.183,0.058l1.2-1.269l1.034-1.829l1.007-1.26l4.523-0.382L424.2,116.026" /><path
       id="cz-kr"
       fill="#DDDDDD"
       stroke="#FFFFFF"
       d="M539.524,227.719l-11.495-3.716l-0.566,0.289l-0.44,0.586l-0.326,0.822   l-0.225,1.003l-0.163,2.302l-0.231,1.051l-0.634,0.813l-11.233,5.359l-0.619,0.533l-0.456,0.742l-0.506,2.122l-0.406,0.932   l-0.538,0.765l-0.645,0.609l-1.487,0.785l-9.703,0.912l-1.685,0.684l-1.579,1.188l-4.208-3.64l-1.253-0.3l-0.511-0.36l-1.719-2.179   l-0.417-0.358l-0.95-0.223l-1.23-0.65l-1.289-1.184l-1.077-1.601l-0.809-1.707l-0.655-0.502l-6.239-1.25l-0.857-0.64l-0.491-0.908   l-0.226-1.086l-0.029-3.439l-0.112-0.908l-0.318-0.64l-0.604-0.447l-3.011-0.905l-4.53,0.08l-1.018,0.51l-6.915,6.811l-0.616,0.302   l-0.456-0.144l-0.448-0.401l-0.428-0.627l-0.763-1.773l-1.003-4.371l-0.418-0.564l-0.568-0.236l-5.394,1.586l-0.686,0.823   l-0.501,1.076l-1.435,4.6l-0.525,0.666l-0.698,0.227l-0.838-0.188l-4.415-3.025l-0.565-0.188l-3.323,0.992l-1.598-0.021   l-4.237-2.099l-1.65,0.13l-2.1,1.053l-6.613,6.228l-0.835,0.065l-5.987-2.259l0.319-0.476l-0.067-0.699l-0.422-1.059l-1.427-2.132   l-1.046-1.264l-0.83-0.825l-1.735-1.208l-0.302-0.393l-0.267-0.534l0.034-0.877l0.166-0.506l1.769-1.84l0.456-0.674l0.134-0.333   l0.132-0.386l0.069-0.421l-0.218-0.947l-1.667-4.821l-0.47-1.807l-0.254-1.395l-0.017-2.298l-0.403-2.905l-0.319-0.961l-0.49-0.987   l-0.893-0.818l-0.729-0.312l-0.789-0.056l-4.446,0.579l-2.966-0.711l-0.993-0.079l-2.003,0.448l-0.763,0.062l-0.792-0.075   l-0.624-0.243l-0.588-0.65l-0.372-0.904l-0.302-1.949l-0.403-1.341l-0.926-1.506l-0.672-0.652l-0.677-0.447l-5.375-2.321   l-0.286-0.211l-0.235-0.634l-0.151-1.125l0.151-2.505l0.353-1.369l0.288-0.823l0.943-1.283l0.924-1.709l0.369-0.96l0.17-1.398   l-0.086-1.67l-0.991-6.886l-0.221-0.737l-0.353-0.789l-0.739-1.348l-0.288-1.018l0.067-1.351l0.37-0.887l0.086-0.088l0.353-0.542   l0.338-0.604l0.031-0.636l-0.219-0.653l0.25-0.232l0.327-0.186l0.465-0.135l0.617-0.015l1.735,0.614l6.003,5.069l0.736,0.381   l0.677,0.079l0.633-0.279l4.698-5.311l1.058-0.439l1.166-0.011l4.734,1.921l2.081,1.68l3.321,4.28l1.622,1.398l0.79,0.356   l0.758,0.084l0.708-0.216l0.646-0.543l0.47-0.911l0.25-1.209l0.369-5.439l0.341-0.912l0.604-0.49l2.8-0.96l0.641-0.053l0.626,0.112   l0.614,0.323l2.274,2.435l1.232,0.838l8.316,1.474l0.787-0.16l0.616-0.504l0.415-0.945l0.176-1.145l-0.041-1.056l-0.23-0.997   l-3.722-8.573l-0.139-0.655l-0.034-0.676l0.766-3.649l0.064-1.041l-0.048-1.034l-0.186-1.004l-0.328-0.951l-0.495-0.876   l-1.339-1.723l-0.489-1.304l-0.315-1.544l-0.156-3.333l0.143-1.546l0.275-1.307l0.397-0.943l0.194-0.968l-0.25-1.353l-3.607-7.328   l-1.538-4.941l13.002,4.566l1.233,0.825l1.438,2.208l0.796,0.78l1.146,0.363l9.021-2.19l2.694,0.257l0.234,1.17l0.349,1.046   l5.486,9.364l0.696,0.248l3.009-0.088l6.429-2.426l1.797,0.257l1.459,1.417l1.413,2.691l0.942,2.319l0.596,2.362l-0.247,2.035   l-1.561,1.273l-0.214,0.557l-0.088,0.548l0.076,0.539l0.226,0.513l4.611-0.849l6.733-6.537l4.577,0.469l3.437,2.637l1.647,0.778   l1.828-0.425l1.325-1.672l0.786-2.186l0.797-1.716l1.401-0.301l3.938,0.08l3.547,0.912l3.333,1.894l9.247,9.825l0.986,3.26   l-3.41,1.404l0.415,1.29v0.565l-0.305,0.477l-0.47,0.989l-0.169,0.865l-0.146,1.315l0.012,1.006l0.304-0.097l-0.933,1.306   l-2.232,2.214l-1.022,1.438l-1.861,0.415l-3.479-0.97l-1.706,0.556l-0.84,2.205l-1.629,1.402l-1.908,1.137l-1.672,1.401   l-0.593,0.238l-1,0.634l-0.663,0.062l0.527,1.896l0.201,0.52l-2.164-0.493l-0.854,2.704l1.021,3.047l3.522,0.625l1.403,4.392   l0.517,0.985l1.392,1.126l0.796-0.176l0.775-0.677l1.267-0.414h4.95l1.031,0.326l0.764,1.583l0.079,1.583l-0.089,1.547l0.281,1.486   l1.929,2.575l4.837,1.774l2.412,1.696l1.559,2.205l2.763,5.039l1.572,2.141l1.38,2.5l3.287,3.438l1.178,3.208l1.234,5.782   l1.021,2.119L539.524,227.719" /><path
       id="cz-mo"
       fill="#DDDDDD"
       stroke="#FFFFFF"
       d="M695.315,241.822l1.541,0.386l6.339,4.158l-0.705,3.117l1.413,1.641   l6.934,1.317l1.651,0.917l3.421,2.956l1.279,0.576l2.548,0.533l1.291,0.959l0.461,0.924l0.751,2.616l0.606,1.142l2.154,1.768   l1.569-0.314l3.042-2.658l-0.124-0.288l-0.146-0.192l-0.19-0.094h-0.235l4.376-0.542l4.197,1.5l8.068,4.47l2.523-0.01l4.276-2.743   l1.604,0.975l0.672,3.059l-0.269,2.584l0.473,2.063l2.884,1.557l-2.983,3.472l0.043,4.513l1.886,5.111l2.558,5.28l1.091,4.888   l0.684,1.258l1.449,1.016l3.343,0.295l1.55,0.468l1.413,1.164l2.133,2.524l1.368,0.821l1.584-0.129l1.693-0.739l1.693-0.293   l1.627,1.212l0.448,1.311l0.729,5.771l0.506,1.612l1.278,2.925l0.482,1.518l1.561,7.136l0.313,3.46l-0.459,2.79l-4.445,0.122   l-2.029,0.777l-4.456,4.112l-3.039,0.173l-3.145-0.97l-3.556-1.795l-0.754-0.156l-0.751,0.156l-3.099,1.642l-4.804-0.7l-2.23,1.416   l-0.563,1.375l-0.271,3.106l-0.551,1.466l-0.896,0.916l-3.567,1.925l-4.624,5.676l-2.436,1.603l-3.165-0.715l-0.069,2.022   l-1.196-0.029l-0.621-0.259l-0.602-0.456l-0.524-0.703l-0.392-1.008l-0.864-4.771l-0.322-1.066l-0.474-0.941l-0.675-0.777   l-1.864-1.185l-0.729-0.826l-2.263-4.854l-0.546-0.605l-1.863-0.712l-8.249,0.132l-0.734-0.272l-3.27-2.328l-1.021-0.42   l-16.93,1.68l-0.914-0.191l-0.761-0.397l-0.604-0.612l-0.427-0.83l-0.451-2.07l-0.303-0.706l-0.379-0.454l-0.436-0.261   l-4.786-0.079l-1.627-1.881l-1.387-1.087l-3.093-0.797l-0.204-2.116l-0.484-1.854l-0.402-0.896l-1.166-1.486l-2.901-2.524   l-3.422-1.598l-0.72-0.759l-3.32-6.984l-0.612-0.646l-0.614-0.142l-0.626,0.212l-1.983,1.281l-0.71,0.149l-0.749-0.229   l-0.601-0.637l-0.32-0.904l-0.102-1.103l0.614-5.536l-0.176-0.732l-0.484-0.761l-2.52-2.172l-3.135-1.502l-3.935,1.309   l-2.778-0.219l-3.969-2.682l-0.631-0.041l-0.583,0.271l-2.524,1.963l-5.505-0.302l-1.598-0.805l-8.351-9.041l-0.766-0.293   l-0.763,0.123l-3.053,1.678l-0.766-0.024l-9.291-4.734l-0.44-0.451l-0.235-0.54l-0.3-1.708l-0.254-0.451l-0.472-0.316l-4.694-0.622   L600,276.497l-0.485-0.533l-0.264-0.641l-0.096-0.746l0.511-6.13l0.207-0.95l0.322-0.835l3.117-4.089l0.194-0.568l-0.048-0.511   l-0.255-0.478l-3.037-2.98l-0.439-0.856l-0.234-0.915l-0.054-0.943l0.12-0.945l0.281-0.917l0.42-0.854l6.464-9.087l0.354-0.729   l0.135-0.761l-0.038-0.806l-1.233-4.991l0.074-0.766l0.247-0.604l1.104-1.796l0.264-0.917l0.229-2.578l0.354-1.178l0.53-1.029   l1.438-1.673l8.799-4.919l2.498-3.679l0.558-0.493l0.6-0.241l0.662,0.086l1.505,0.952l0.782,0.015l0.753-0.343l0.69-0.611   l0.596-0.79l0.466-0.879l0.305-0.88l0.107-0.791l-1.713-10.027l2.367,1.922l1.011,3.159l0.55,0.368l0.586,0.132l0.57-0.123   l0.562-0.377l3.188-3.879l5.173-0.474l9.708,1.72l2.513-0.658l1.864-1.527l3.22-4.469l0.607-1.388l0.279-1.16l0.706-0.457   l1.84,0.686l0.607,0.571l1.996,2.706l0.271,0.386l0.056,0.457l-0.079,0.509l-0.247,0.536l-1.178,3.178l-0.214,1.554l0.246,1.711   l1.146,1.14l1.696,3.14l-1.022,2.569l-2.2,1.911l-4.623,2.778l-2.894,1.139l-5.241,0.202l-1.188,0.604l-0.798,1.708l0.225,1.234   l5.272,6.695l1.696,0.77l1.1-0.202l0.922-0.533l1.153-0.271l1.425,0.385l2.951,1.47l1.526,0.324l0.046,0.167l0.021,0.157   l-0.021,0.131l-0.046,0.123l-1.01,0.866l-0.35,0.927l0.339,0.97l1.021,1.023l1.202,1.442l0.738,1.871l0.606,2.087l0.854,2.018   l1.224,1.694l7.037,7.018l3.949,0.837l3.948-1.204l3.199-2.863l1.975-0.516l4.354-0.13l3.534-1.056l0.552-0.744l-0.191-1.685   l-0.764-1.171l-0.931-0.026l-0.863,0.271l-0.574-0.245l-0.481-3.825L695.315,241.822" /></g><g
     inkscape:groupmode="layer"
     id="layer2"
     inkscape:label="brno-marker"><circle
       style="opacity:1;fill:#0f2030;fill-opacity:1;stroke:none;stroke-opacity:1"
       id="path3741"
       cx="540.164"
       cy="381.95114"
       r="3.6038136" /><circle
       style="opacity:1;fill:#0f2030;fill-opacity:1;stroke:none;stroke-opacity:1"
       id="path3741-7"
       cx="455.08051"
       cy="405.9274"
       r="3.6038136" /></g><g
     inkscape:groupmode="layer"
     id="layer3"
     inkscape:label="mapa"
     style="opacity:1" /></svg>