<?xml version="1.0" encoding="UTF-8"?>
<!-- Created with Inkscape (http://www.inkscape.org/) -->
<svg width="51.287mm" height="76.774mm" version="1.1" viewBox="0 0 51.287 76.774" xmlns="http://www.w3.org/2000/svg" xmlns:cc="http://creativecommons.org/ns#" xmlns:dc="http://purl.org/dc/elements/1.1/" xmlns:rdf="http://www.w3.org/1999/02/22-rdf-syntax-ns#">
 <metadata>
  <rdf:RDF>
   <cc:Work rdf:about="">
    <dc:format>image/svg+xml</dc:format>
    <dc:type rdf:resource="http://purl.org/dc/dcmitype/StillImage"/>
    <dc:title/>
   </cc:Work>
  </rdf:RDF>
 </metadata>
 <g transform="translate(-2.3789 -1.1607)">
  <path d="m2.5112 77.802h7.9375v-49.436l12.766 18.942c-3.9814-0.0254-5.8198-0.26252-8.7974-1.2568v7.9375c4.0659 0.81018 7.5961 0.99681 13.739 0.76163l15.63 23.051h9.6305l-16.608-24.479s16.628-5.897 16.618-24.955c-0.0096-18.838-11.435-26.589-25.781-26.767-10.724-0.13948-15.612 0.0136-18.662 4e-3l5.4332 7.9334s8.2627-0.13442 13.229-0.13442c12.324 0.12576 17.905 8.2393 17.882 19.045-0.02286 10.806-8.1488 16.98-13.51 17.899-9.0542-13.658-29.508-44.748-29.508-44.748z" fill="#fff"/>
 </g>
</svg>
